<?xml version="1.0" encoding="UTF-8" standalone="no"?>
<!-- Created with Inkscape (http://www.inkscape.org/) -->

<svg
   width="31.75mm"
   height="31.749996mm"
   viewBox="0 0 31.75 31.749996"
   version="1.1"
   id="svg2166"
   inkscape:version="1.2.2 (732a01da63, 2022-12-09)"
   sodipodi:docname="favicon.svg"
   xmlns:inkscape="http://www.inkscape.org/namespaces/inkscape"
   xmlns:sodipodi="http://sodipodi.sourceforge.net/DTD/sodipodi-0.dtd"
   xmlns="http://www.w3.org/2000/svg"
   xmlns:svg="http://www.w3.org/2000/svg">
  <sodipodi:namedview
     id="namedview2168"
     pagecolor="#ffffff"
     bordercolor="#000000"
     borderopacity="0.25"
     inkscape:showpageshadow="2"
     inkscape:pageopacity="0.0"
     inkscape:pagecheckerboard="0"
     inkscape:deskcolor="#d1d1d1"
     inkscape:document-units="mm"
     showgrid="false"
     inkscape:zoom="0.72515432"
     inkscape:cx="595.73526"
     inkscape:cy="298.55714"
     inkscape:window-width="1920"
     inkscape:window-height="1001"
     inkscape:window-x="-9"
     inkscape:window-y="-9"
     inkscape:window-maximized="1"
     inkscape:current-layer="layer1" />
  <defs
     id="defs2163" />
  <g
     inkscape:label="Layer 1"
     inkscape:groupmode="layer"
     id="layer1"
     transform="translate(77.172297,-69.868243)">
    <path
       d="m -77.172297,74.403957 c 0,-2.50173 2.033984,-4.535714 4.535714,-4.535714 h 22.678571 c 2.50173,0 4.535715,2.033984 4.535715,4.535714 v 22.678571 c 0,2.50173 -2.033985,4.535712 -4.535715,4.535712 h -22.678571 c -2.50173,0 -4.535714,-2.033982 -4.535714,-4.535712 z"
       id="path7478"
       style="fill:#ffffff;stroke-width:0.0708705" />
    <path
       d="m -54.947802,74.819231 c 0.30488,-0.707942 0.07751,-1.534736 -0.547751,-1.989472 -0.625263,-0.454737 -1.477894,-0.413397 -2.061817,0.09301 l -13.228698,11.575112 c -0.516747,0.454737 -0.702775,1.183348 -0.459905,1.824113 0.242871,0.640765 0.862967,1.074832 1.550239,1.074832 h 5.761718 l -3.973777,9.270423 c -0.30488,0.707943 -0.07751,1.534737 0.547751,1.989474 0.625262,0.454737 1.477893,0.413398 2.061816,-0.09301 l 13.2287,-11.575112 c 0.516745,-0.454737 0.702774,-1.183349 0.459904,-1.824114 -0.242872,-0.640765 -0.8578,-1.069664 -1.550239,-1.069664 h -5.761718 z"
       id="path5145"
       style="fill:#000000;stroke-width:0.0516744" />
  </g>
</svg>
