<?xml version="1.0" encoding="UTF-8" standalone="no"?>
<svg
   viewBox="0 0 120 120"
   version="1.1"
   id="svg2631"
   sodipodi:docname="favicon.svg"
   width="120"
   height="120"
   inkscape:version="1.2.2 (732a01da63, 2022-12-09)"
   xmlns:inkscape="http://www.inkscape.org/namespaces/inkscape"
   xmlns:sodipodi="http://sodipodi.sourceforge.net/DTD/sodipodi-0.dtd"
   xmlns="http://www.w3.org/2000/svg"
   xmlns:svg="http://www.w3.org/2000/svg">
  <defs
     id="defs2635" />
  <sodipodi:namedview
     id="namedview2633"
     pagecolor="#ffffff"
     bordercolor="#000000"
     borderopacity="0.25"
     inkscape:showpageshadow="2"
     inkscape:pageopacity="0.0"
     inkscape:pagecheckerboard="0"
     inkscape:deskcolor="#d1d1d1"
     showgrid="false"
     inkscape:zoom="1.5898438"
     inkscape:cx="70.447174"
     inkscape:cy="129.25799"
     inkscape:window-width="1920"
     inkscape:window-height="1001"
     inkscape:window-x="-9"
     inkscape:window-y="-9"
     inkscape:window-maximized="1"
     inkscape:current-layer="svg2631" />
  <path
     d="M 0,17.142857 C 0,7.6875 7.6875,0 17.142857,0 H 102.85714 C 112.3125,0 120,7.6875 120,17.142857 V 102.85714 C 120,112.3125 112.3125,120 102.85714,120 H 17.142857 C 7.6875,120 0,112.3125 0,102.85714 Z"
     id="path7478"
     style="fill:#ffffff;stroke-width:0.267857" />
  <!--! Font Awesome Pro 6.4.2 by @fontawesome - https://fontawesome.com License - https://fontawesome.com/license (Commercial License) Copyright 2023 Fonticons, Inc. -->
  <path
     d="m 83.998092,18.712397 c 1.152303,-2.675687 0.292959,-5.800577 -2.07024,-7.519266 -2.363197,-1.7186892 -5.58574,-1.5624447 -7.792693,0.35155 L 24.136927,55.293135 c -1.953056,1.71869 -2.656156,4.472499 -1.73822,6.894288 0.917936,2.421789 3.261604,4.062357 5.859168,4.062357 h 21.776574 l -15.019,35.03782 c -1.152304,2.67569 -0.292959,5.80058 2.070239,7.51927 2.363197,1.71869 5.585739,1.56245 7.792692,-0.35155 L 94.876615,64.706865 c 1.953052,-1.718689 2.656154,-4.472498 1.738221,-6.894287 -0.917941,-2.421789 -3.242078,-4.042826 -5.85917,-4.042826 H 68.979092 Z"
     id="path5145"
     style="fill:#ffcc00;stroke-width:0.195305" />
  <path
     d="m 82.097246,21.427524 -8.226641,8.24141 18.491481,18.491479 8.226634,-8.226641 c 3.23454,-3.234532 3.23454,-8.462953 0,-11.697485 l -6.793988,-6.808763 c -3.234533,-3.234532 -8.462954,-3.234532 -11.697486,0 z m -11.874719,11.269168 -1.358799,0.413547 -21.282925,6.380446 c -2.93914,0.886174 -5.272729,3.131146 -6.247519,6.055517 L 28.247461,84.56736 c -0.561243,1.668961 -0.147696,3.52992 1.078177,4.785331 L 52.011669,66.681431 C 51.568582,65.750949 51.3175,64.71708 51.3175,63.624133 c 0,-3.913931 3.175454,-7.089385 7.089385,-7.089385 3.913931,0 7.089385,3.175454 7.089385,7.089385 0,3.913931 -3.175454,7.089385 -7.089385,7.089385 -1.092947,0 -2.126815,-0.251082 -3.057298,-0.694168 l -22.68603,22.686034 c 1.270181,1.225871 3.116375,1.654184 4.785335,1.078177 L 76.484817,80.697734 c 2.909601,-0.974786 5.169343,-3.308378 6.055516,-6.247519 l 6.380446,-21.282924 0.413547,-1.358799 z"
     id="path2629"
     style="fill:#2a7fff;stroke-width:0.147696" />
</svg>
